STARTFONT 2.1
FONT -Adobe-Utopia-Bold-R-Normal--10-100-75-75-P-59-ISO8859-2
SIZE 10 75 75
FONTBOUNDINGBOX 14 11 -2 -2
STARTPROPERTIES 29
FOUNDRY "Adobe"
FAMILY_NAME "Utopia"
WEIGHT_NAME "Bold"
SLANT "R"
SETWIDTH_NAME "Normal"
ADD_STYLE_NAME ""
PIXEL_SIZE 10
POINT_SIZE 100
RESOLUTION_X 75
RESOLUTION_Y 75
SPACING "P"
AVERAGE_WIDTH 59
CHARSET_REGISTRY "ISO8859"
CHARSET_ENCODING "2"
CAP_HEIGHT 7
X_HEIGHT 5
RELATIVE_SETWIDTH 50
RELATIVE_WEIGHT 70
WEIGHT 218
FACE_NAME "Utopia Bold"
COPYRIGHT "Copyright (c) 1989, 1991 Adobe Systems Incorporated.  All rights reserved., Copyright 1996 Cub Soft"
NOTICE "Utopia is a registered trademark of Adobe Systems Incorporated."
DESTINATION 0
FONT_ASCENT 9
FONT_DESCENT 2
DEFAULT_CHAR 32
_ADOBE_PSFONT "Utopia-Bold"
_ADOBE_XFONT "-Adobe-Utopia-Bold-R-Normal--10-100-75-75-P-59-ISO8859-2"
_DEC_DEVICE_FONTNAMES "PS=Utopia-Bold"
ENDPROPERTIES
CHARS 191
STARTCHAR space
ENCODING 32
SWIDTH 210 0
DWIDTH 2 0
BBX 0 0 0 0
BITMAP
ENDCHAR
STARTCHAR exclam
ENCODING 33
SWIDTH 278 0
DWIDTH 3 0
BBX 2 7 0 0
BITMAP
c0
c0
c0
c0
00
c0
c0
ENDCHAR
STARTCHAR quotedbl
ENCODING 34
SWIDTH 473 0
DWIDTH 5 0
BBX 3 3 1 4
BITMAP
a0
a0
a0
ENDCHAR
STARTCHAR numbersign
ENCODING 35
SWIDTH 560 0
DWIDTH 6 0
BBX 6 6 0 1
BITMAP
28
7c
28
50
f8
50
ENDCHAR
STARTCHAR dollar
ENCODING 36
SWIDTH 560 0
DWIDTH 6 0
BBX 5 9 0 -1
BITMAP
20
70
d8
c0
70
18
d8
70
20
ENDCHAR
STARTCHAR percent
ENCODING 37
SWIDTH 887 0
DWIDTH 9 0
BBX 8 7 0 0
BITMAP
64
d8
d8
76
2d
2d
46
ENDCHAR
STARTCHAR ampersand
ENCODING 38
SWIDTH 748 0
DWIDTH 8 0
BBX 7 7 0 0
BITMAP
30
48
6a
72
dc
cc
76
ENDCHAR
STARTCHAR apostrophe
ENCODING 39
SWIDTH 252 0
DWIDTH 3 0
BBX 2 4 0 3
BITMAP
c0
c0
40
80
ENDCHAR
STARTCHAR parenleft
ENCODING 40
SWIDTH 365 0
DWIDTH 4 0
BBX 3 9 0 -2
BITMAP
20
40
80
80
80
80
80
40
20
ENDCHAR
STARTCHAR parenright
ENCODING 41
SWIDTH 365 0
DWIDTH 4 0
BBX 3 9 0 -2
BITMAP
80
40
20
20
20
20
20
40
80
ENDCHAR
STARTCHAR asterisk
ENCODING 42
SWIDTH 442 0
DWIDTH 5 0
BBX 5 5 0 2
BITMAP
20
a8
70
a8
20
ENDCHAR
STARTCHAR plus
ENCODING 43
SWIDTH 600 0
DWIDTH 6 0
BBX 5 5 0 0
BITMAP
20
20
f8
20
20
ENDCHAR
STARTCHAR comma
ENCODING 44
SWIDTH 280 0
DWIDTH 3 0
BBX 2 4 0 -2
BITMAP
c0
c0
40
80
ENDCHAR
STARTCHAR minus
ENCODING 45
SWIDTH 600 0
DWIDTH 6 0
BBX 5 1 0 2
BITMAP
f8
ENDCHAR
STARTCHAR period
ENCODING 46
SWIDTH 280 0
DWIDTH 3 0
BBX 2 2 0 0
BITMAP
c0
c0
ENDCHAR
STARTCHAR slash
ENCODING 47
SWIDTH 378 0
DWIDTH 4 0
BBX 3 7 0 0
BITMAP
20
20
40
40
40
80
80
ENDCHAR
STARTCHAR zero
ENCODING 48
SWIDTH 560 0
DWIDTH 6 0
BBX 5 7 0 0
BITMAP
70
d8
d8
d8
d8
d8
70
ENDCHAR
STARTCHAR one
ENCODING 49
SWIDTH 560 0
DWIDTH 6 0
BBX 4 7 1 0
BITMAP
60
e0
60
60
60
60
f0
ENDCHAR
STARTCHAR two
ENCODING 50
SWIDTH 560 0
DWIDTH 6 0
BBX 5 7 0 0
BITMAP
70
d8
18
30
60
f8
f8
ENDCHAR
STARTCHAR three
ENCODING 51
SWIDTH 560 0
DWIDTH 6 0
BBX 5 7 0 0
BITMAP
70
d8
18
70
18
d8
70
ENDCHAR
STARTCHAR four
ENCODING 52
SWIDTH 560 0
DWIDTH 6 0
BBX 5 7 0 0
BITMAP
60
60
50
b0
f8
30
78
ENDCHAR
STARTCHAR five
ENCODING 53
SWIDTH 560 0
DWIDTH 6 0
BBX 6 7 -1 0
BITMAP
78
78
40
78
0c
cc
78
ENDCHAR
STARTCHAR six
ENCODING 54
SWIDTH 560 0
DWIDTH 6 0
BBX 5 7 0 0
BITMAP
70
d8
c0
f0
d8
d8
70
ENDCHAR
STARTCHAR seven
ENCODING 55
SWIDTH 560 0
DWIDTH 6 0
BBX 5 7 0 0
BITMAP
f8
f8
10
30
20
60
60
ENDCHAR
STARTCHAR eight
ENCODING 56
SWIDTH 560 0
DWIDTH 6 0
BBX 5 7 0 0
BITMAP
70
d8
d8
70
d8
d8
70
ENDCHAR
STARTCHAR nine
ENCODING 57
SWIDTH 560 0
DWIDTH 6 0
BBX 5 7 0 0
BITMAP
70
d8
d8
78
18
d8
70
ENDCHAR
STARTCHAR colon
ENCODING 58
SWIDTH 280 0
DWIDTH 3 0
BBX 2 5 0 0
BITMAP
c0
c0
00
c0
c0
ENDCHAR
STARTCHAR semicolon
ENCODING 59
SWIDTH 280 0
DWIDTH 3 0
BBX 2 7 0 -2
BITMAP
c0
c0
00
c0
c0
40
80
ENDCHAR
STARTCHAR less
ENCODING 60
SWIDTH 600 0
DWIDTH 6 0
BBX 5 5 0 0
BITMAP
18
70
c0
70
18
ENDCHAR
STARTCHAR equal
ENCODING 61
SWIDTH 600 0
DWIDTH 6 0
BBX 5 3 0 1
BITMAP
f8
00
f8
ENDCHAR
STARTCHAR greater
ENCODING 62
SWIDTH 600 0
DWIDTH 6 0
BBX 5 5 0 0
BITMAP
c0
70
18
70
c0
ENDCHAR
STARTCHAR question
ENCODING 63
SWIDTH 456 0
DWIDTH 5 0
BBX 5 7 0 0
BITMAP
70
d8
30
60
00
60
60
ENDCHAR
STARTCHAR at
ENCODING 64
SWIDTH 833 0
DWIDTH 9 0
BBX 8 7 0 0
BITMAP
3c
42
9d
a9
be
40
3e
ENDCHAR
STARTCHAR A
ENCODING 65
SWIDTH 644 0
DWIDTH 7 0
BBX 7 7 0 0
BITMAP
10
38
38
28
7c
4c
ee
ENDCHAR
STARTCHAR B
ENCODING 66
SWIDTH 683 0
DWIDTH 7 0
BBX 6 7 0 0
BITMAP
f8
6c
6c
78
6c
6c
f8
ENDCHAR
STARTCHAR C
ENCODING 67
SWIDTH 689 0
DWIDTH 7 0
BBX 6 7 0 0
BITMAP
7c
c4
c0
c0
c0
c4
7c
ENDCHAR
STARTCHAR D
ENCODING 68
SWIDTH 777 0
DWIDTH 8 0
BBX 7 7 0 0
BITMAP
fc
66
66
66
66
66
fc
ENDCHAR
STARTCHAR E
ENCODING 69
SWIDTH 629 0
DWIDTH 7 0
BBX 6 7 0 0
BITMAP
fc
64
60
78
60
64
fc
ENDCHAR
STARTCHAR F
ENCODING 70
SWIDTH 593 0
DWIDTH 6 0
BBX 6 7 0 0
BITMAP
fc
64
60
78
60
60
f0
ENDCHAR
STARTCHAR G
ENCODING 71
SWIDTH 726 0
DWIDTH 7 0
BBX 7 7 0 0
BITMAP
7c
c4
c0
c0
ce
cc
7c
ENDCHAR
STARTCHAR H
ENCODING 72
SWIDTH 807 0
DWIDTH 9 0
BBX 8 7 0 0
BITMAP
ef
66
66
7e
66
66
f7
ENDCHAR
STARTCHAR I
ENCODING 73
SWIDTH 384 0
DWIDTH 4 0
BBX 4 7 0 0
BITMAP
f0
60
60
60
60
60
f0
ENDCHAR
STARTCHAR J
ENCODING 74
SWIDTH 386 0
DWIDTH 4 0
BBX 4 9 0 -2
BITMAP
f0
60
60
60
60
60
60
60
c0
ENDCHAR
STARTCHAR K
ENCODING 75
SWIDTH 707 0
DWIDTH 7 0
BBX 7 7 0 0
BITMAP
f6
64
68
78
6c
6c
ee
ENDCHAR
STARTCHAR L
ENCODING 76
SWIDTH 585 0
DWIDTH 6 0
BBX 6 7 0 0
BITMAP
f0
60
60
60
60
64
fc
ENDCHAR
STARTCHAR M
ENCODING 77
SWIDTH 918 0
DWIDTH 10 0
BBX 9 7 0 0
BITMAP
e380
7700
7700
5b00
5b00
4300
e380
ENDCHAR
STARTCHAR N
ENCODING 78
SWIDTH 739 0
DWIDTH 8 0
BBX 7 7 0 0
BITMAP
ee
74
74
5c
5c
4c
ec
ENDCHAR
STARTCHAR O
ENCODING 79
SWIDTH 768 0
DWIDTH 8 0
BBX 7 7 0 0
BITMAP
7c
c6
c6
c6
c6
c6
7c
ENDCHAR
STARTCHAR P
ENCODING 80
SWIDTH 650 0
DWIDTH 7 0
BBX 6 7 0 0
BITMAP
f8
6c
6c
78
60
60
f0
ENDCHAR
STARTCHAR Q
ENCODING 81
SWIDTH 768 0
DWIDTH 8 0
BBX 7 9 0 -2
BITMAP
7c
c6
c6
c6
c6
c6
7c
18
0e
ENDCHAR
STARTCHAR R
ENCODING 82
SWIDTH 684 0
DWIDTH 7 0
BBX 7 7 0 0
BITMAP
f8
6c
6c
78
6c
6c
f6
ENDCHAR
STARTCHAR S
ENCODING 83
SWIDTH 561 0
DWIDTH 6 0
BBX 5 7 0 0
BITMAP
78
c8
e0
70
38
98
f0
ENDCHAR
STARTCHAR T
ENCODING 84
SWIDTH 624 0
DWIDTH 7 0
BBX 6 7 0 0
BITMAP
fc
b4
30
30
30
30
78
ENDCHAR
STARTCHAR U
ENCODING 85
SWIDTH 786 0
DWIDTH 8 0
BBX 8 7 0 0
BITMAP
ef
66
66
66
66
66
3c
ENDCHAR
STARTCHAR V
ENCODING 86
SWIDTH 645 0
DWIDTH 7 0
BBX 7 7 0 0
BITMAP
e6
64
64
38
38
38
10
ENDCHAR
STARTCHAR W
ENCODING 87
SWIDTH 933 0
DWIDTH 10 0
BBX 10 7 0 0
BITMAP
e4c0
6480
6e80
6e80
3300
3300
3300
ENDCHAR
STARTCHAR X
ENCODING 88
SWIDTH 634 0
DWIDTH 7 0
BBX 7 7 0 0
BITMAP
ee
64
38
38
38
4c
ee
ENDCHAR
STARTCHAR Y
ENCODING 89
SWIDTH 617 0
DWIDTH 6 0
BBX 8 7 -1 0
BITMAP
f7
62
34
3c
18
18
3c
ENDCHAR
STARTCHAR Z
ENCODING 90
SWIDTH 614 0
DWIDTH 6 0
BBX 5 7 0 0
BITMAP
f8
98
30
70
60
c8
f8
ENDCHAR
STARTCHAR bracketleft
ENCODING 91
SWIDTH 335 0
DWIDTH 3 0
BBX 2 9 0 -2
BITMAP
c0
80
80
80
80
80
80
80
c0
ENDCHAR
STARTCHAR backslash
ENCODING 92
SWIDTH 379 0
DWIDTH 4 0
BBX 3 7 0 0
BITMAP
80
80
40
40
40
20
20
ENDCHAR
STARTCHAR bracketright
ENCODING 93
SWIDTH 335 0
DWIDTH 3 0
BBX 2 9 0 -2
BITMAP
c0
40
40
40
40
40
40
40
c0
ENDCHAR
STARTCHAR asciicircum
ENCODING 94
SWIDTH 600 0
DWIDTH 6 0
BBX 5 5 0 2
BITMAP
20
70
50
d8
88
ENDCHAR
STARTCHAR underscore
ENCODING 95
SWIDTH 500 0
DWIDTH 5 0
BBX 5 1 0 -2
BITMAP
f8
ENDCHAR
STARTCHAR grave
ENCODING 96
SWIDTH 430 0
DWIDTH 4 0
BBX 3 2 0 6
BITMAP
c0
60
ENDCHAR
STARTCHAR a
ENCODING 97
SWIDTH 544 0
DWIDTH 6 0
BBX 6 5 0 0
BITMAP
70
d8
78
d8
7c
ENDCHAR
STARTCHAR b
ENCODING 98
SWIDTH 605 0
DWIDTH 6 0
BBX 6 8 0 0
BITMAP
e0
60
60
78
6c
6c
6c
78
ENDCHAR
STARTCHAR c
ENCODING 99
SWIDTH 494 0
DWIDTH 5 0
BBX 5 5 0 0
BITMAP
70
d8
c0
e0
78
ENDCHAR
STARTCHAR d
ENCODING 100
SWIDTH 605 0
DWIDTH 6 0
BBX 6 8 0 0
BITMAP
38
18
18
78
d8
d8
d8
7c
ENDCHAR
STARTCHAR e
ENCODING 101
SWIDTH 519 0
DWIDTH 5 0
BBX 5 5 0 0
BITMAP
70
d8
f8
c0
78
ENDCHAR
STARTCHAR f
ENCODING 102
SWIDTH 342 0
DWIDTH 4 0
BBX 5 8 0 0
BITMAP
30
58
60
f0
60
60
60
f0
ENDCHAR
STARTCHAR g
ENCODING 103
SWIDTH 533 0
DWIDTH 6 0
BBX 6 7 0 -2
BITMAP
7c
d8
d0
60
78
9c
f8
ENDCHAR
STARTCHAR h
ENCODING 104
SWIDTH 631 0
DWIDTH 7 0
BBX 7 8 0 0
BITMAP
e0
60
60
78
7c
6c
6c
ee
ENDCHAR
STARTCHAR i
ENCODING 105
SWIDTH 316 0
DWIDTH 4 0
BBX 4 8 0 0
BITMAP
60
60
00
e0
60
60
60
f0
ENDCHAR
STARTCHAR j
ENCODING 106
SWIDTH 316 0
DWIDTH 4 0
BBX 3 10 0 -2
BITMAP
60
60
00
e0
60
60
60
60
60
c0
ENDCHAR
STARTCHAR k
ENCODING 107
SWIDTH 582 0
DWIDTH 7 0
BBX 7 8 0 0
BITMAP
e0
60
60
6c
68
78
6c
ee
ENDCHAR
STARTCHAR l
ENCODING 108
SWIDTH 309 0
DWIDTH 4 0
BBX 4 8 0 0
BITMAP
e0
60
60
60
60
60
60
f0
ENDCHAR
STARTCHAR m
ENCODING 109
SWIDTH 948 0
DWIDTH 10 0
BBX 10 5 0 0
BITMAP
fb00
6d80
6d80
6d80
edc0
ENDCHAR
STARTCHAR n
ENCODING 110
SWIDTH 638 0
DWIDTH 7 0
BBX 7 5 0 0
BITMAP
f8
6c
6c
6c
ee
ENDCHAR
STARTCHAR o
ENCODING 111
SWIDTH 585 0
DWIDTH 6 0
BBX 6 5 0 0
BITMAP
78
dc
cc
ec
78
ENDCHAR
STARTCHAR p
ENCODING 112
SWIDTH 615 0
DWIDTH 6 0
BBX 6 7 0 -2
BITMAP
f8
6c
6c
6c
78
60
f0
ENDCHAR
STARTCHAR q
ENCODING 113
SWIDTH 597 0
DWIDTH 6 0
BBX 6 8 0 -2
BITMAP
08
78
d8
d8
d8
78
18
3c
ENDCHAR
STARTCHAR r
ENCODING 114
SWIDTH 440 0
DWIDTH 5 0
BBX 5 5 0 0
BITMAP
e8
78
60
60
f0
ENDCHAR
STARTCHAR s
ENCODING 115
SWIDTH 446 0
DWIDTH 5 0
BBX 5 5 0 0
BITMAP
78
e0
70
38
f0
ENDCHAR
STARTCHAR t
ENCODING 116
SWIDTH 370 0
DWIDTH 4 0
BBX 4 7 0 0
BITMAP
20
60
f0
60
60
60
30
ENDCHAR
STARTCHAR u
ENCODING 117
SWIDTH 629 0
DWIDTH 7 0
BBX 7 5 0 0
BITMAP
ec
6c
6c
6c
3e
ENDCHAR
STARTCHAR v
ENCODING 118
SWIDTH 520 0
DWIDTH 5 0
BBX 5 5 0 0
BITMAP
d8
d8
70
70
20
ENDCHAR
STARTCHAR w
ENCODING 119
SWIDTH 774 0
DWIDTH 8 0
BBX 8 5 0 0
BITMAP
db
db
db
7e
66
ENDCHAR
STARTCHAR x
ENCODING 120
SWIDTH 522 0
DWIDTH 5 0
BBX 5 5 0 0
BITMAP
d8
70
20
70
d8
ENDCHAR
STARTCHAR y
ENCODING 121
SWIDTH 524 0
DWIDTH 5 0
BBX 5 7 0 -2
BITMAP
d8
d8
70
70
20
e0
c0
ENDCHAR
STARTCHAR z
ENCODING 122
SWIDTH 483 0
DWIDTH 5 0
BBX 5 5 0 0
BITMAP
f8
30
70
60
f8
ENDCHAR
STARTCHAR braceleft
ENCODING 123
SWIDTH 365 0
DWIDTH 4 0
BBX 3 9 0 -2
BITMAP
20
40
40
40
80
40
40
40
20
ENDCHAR
STARTCHAR bar
ENCODING 124
SWIDTH 284 0
DWIDTH 3 0
BBX 1 7 1 0
BITMAP
80
80
80
80
80
80
80
ENDCHAR
STARTCHAR braceright
ENCODING 125
SWIDTH 365 0
DWIDTH 4 0
BBX 3 9 0 -2
BITMAP
80
40
40
40
20
40
40
40
80
ENDCHAR
STARTCHAR asciitilde
ENCODING 126
SWIDTH 600 0
DWIDTH 6 0
BBX 5 2 0 2
BITMAP
68
b0
ENDCHAR
STARTCHAR nobreakspace
ENCODING 160
SWIDTH 210 0
DWIDTH 2 0
BBX 0 0 0 0
BITMAP
ENDCHAR
STARTCHAR Aogonek
ENCODING 161
SWIDTH 644 0
DWIDTH 7 0
BBX 7 9 0 -2
BITMAP
10
38
38
28
7c
4c
ee
10
18
ENDCHAR
STARTCHAR breve
ENCODING 162
SWIDTH 430 0
DWIDTH 5 0
BBX 4 2 0 6
BITMAP
90
60
ENDCHAR
STARTCHAR Lstroke
ENCODING 163
SWIDTH 591 0
DWIDTH 6 0
BBX 6 7 0 0
BITMAP
f0
60
70
e0
60
64
fc
ENDCHAR
STARTCHAR currency
ENCODING 164
SWIDTH 560 0
DWIDTH 6 0
BBX 5 7 0 0
BITMAP
88
70
d8
88
d8
70
88
ENDCHAR
STARTCHAR Lcaron
ENCODING 165
SWIDTH 672 0
DWIDTH 7 0
BBX 7 8 0 0
BITMAP
06
f6
62
64
60
60
64
fc
ENDCHAR
STARTCHAR Sacute
ENCODING 166
SWIDTH 561 0
DWIDTH 6 0
BBX 5 10 0 0
BITMAP
18
30
00
78
c8
e0
70
38
98
f0
ENDCHAR
STARTCHAR section
ENCODING 167
SWIDTH 566 0
DWIDTH 6 0
BBX 6 9 0 -2
BITMAP
38
48
60
b8
cc
74
18
48
70
ENDCHAR
STARTCHAR diaeresis
ENCODING 168
SWIDTH 430 0
DWIDTH 4 0
BBX 3 2 0 6
BITMAP
a0
a0
ENDCHAR
STARTCHAR Scaron
ENCODING 169
SWIDTH 561 0
DWIDTH 6 0
BBX 5 10 0 0
BITMAP
68
30
00
78
c8
e0
70
38
98
f0
ENDCHAR
STARTCHAR Scedilla
ENCODING 170
SWIDTH 561 0
DWIDTH 6 0
BBX 5 9 0 -2
BITMAP
78
c8
e0
70
38
98
f0
10
30
ENDCHAR
STARTCHAR Tcaron
ENCODING 171
SWIDTH 624 0
DWIDTH 7 0
BBX 6 10 0 0
BITMAP
68
30
00
fc
b4
30
30
30
30
78
ENDCHAR
STARTCHAR Zacute
ENCODING 172
SWIDTH 614 0
DWIDTH 6 0
BBX 5 10 0 0
BITMAP
18
30
00
f8
98
30
70
60
c8
f8
ENDCHAR
STARTCHAR hyphen
ENCODING 173
SWIDTH 392 0
DWIDTH 4 0
BBX 3 1 0 2
BITMAP
e0
ENDCHAR
STARTCHAR Zcaron
ENCODING 174
SWIDTH 614 0
DWIDTH 6 0
BBX 5 10 0 0
BITMAP
68
30
00
f8
98
30
70
60
c8
f8
ENDCHAR
STARTCHAR Zabovedot
ENCODING 175
SWIDTH 614 0
DWIDTH 6 0
BBX 5 10 0 0
BITMAP
20
20
00
f8
98
30
70
60
c8
f8
ENDCHAR
STARTCHAR degree
ENCODING 176
SWIDTH 396 0
DWIDTH 4 0
BBX 3 4 0 3
BITMAP
40
a0
a0
40
ENDCHAR
STARTCHAR aogonek
ENCODING 177
SWIDTH 544 0
DWIDTH 6 0
BBX 6 7 0 -2
BITMAP
70
d8
78
d8
7c
20
30
ENDCHAR
STARTCHAR ogonek
ENCODING 178
SWIDTH 430 0
DWIDTH 4 0
BBX 2 2 1 -2
BITMAP
80
c0
ENDCHAR
STARTCHAR lstroke
ENCODING 179
SWIDTH 321 0
DWIDTH 4 0
BBX 4 8 0 0
BITMAP
e0
60
60
70
e0
60
60
f0
ENDCHAR
STARTCHAR acute
ENCODING 180
SWIDTH 430 0
DWIDTH 4 0
BBX 3 2 0 6
BITMAP
60
c0
ENDCHAR
STARTCHAR lcaron
ENCODING 181
SWIDTH 576 0
DWIDTH 6 0
BBX 6 9 0 0
BITMAP
0c
ec
64
68
60
60
60
60
f0
ENDCHAR
STARTCHAR sacute
ENCODING 182
SWIDTH 446 0
DWIDTH 5 0
BBX 5 8 0 0
BITMAP
18
30
00
78
e0
70
38
f0
ENDCHAR
STARTCHAR caron
ENCODING 183
SWIDTH 430 0
DWIDTH 5 0
BBX 4 2 0 6
BITMAP
d0
60
ENDCHAR
STARTCHAR cedilla
ENCODING 184
SWIDTH 430 0
DWIDTH 4 0
BBX 2 2 1 -2
BITMAP
40
c0
ENDCHAR
STARTCHAR scaron
ENCODING 185
SWIDTH 446 0
DWIDTH 5 0
BBX 5 8 0 0
BITMAP
68
30
00
78
e0
70
38
f0
ENDCHAR
STARTCHAR scedilla
ENCODING 186
SWIDTH 446 0
DWIDTH 5 0
BBX 5 7 0 -2
BITMAP
78
e0
70
38
f0
10
30
ENDCHAR
STARTCHAR tcaron
ENCODING 187
SWIDTH 576 0
DWIDTH 6 0
BBX 6 10 0 0
BITMAP
0c
0c
04
28
60
f0
60
60
60
30
ENDCHAR
STARTCHAR zacute
ENCODING 188
SWIDTH 483 0
DWIDTH 5 0
BBX 5 8 0 0
BITMAP
18
30
00
f8
30
70
60
f8
ENDCHAR
STARTCHAR doubleacute
ENCODING 189
SWIDTH 430 0
DWIDTH 4 0
BBX 4 2 0 6
BITMAP
50
a0
ENDCHAR
STARTCHAR zcaron
ENCODING 190
SWIDTH 483 0
DWIDTH 5 0
BBX 5 8 0 0
BITMAP
68
30
00
f8
30
70
60
f8
ENDCHAR
STARTCHAR zabovedot
ENCODING 191
SWIDTH 483 0
DWIDTH 5 0
BBX 5 8 0 0
BITMAP
20
20
00
f8
30
70
60
f8
ENDCHAR
STARTCHAR Racute
ENCODING 192
SWIDTH 684 0
DWIDTH 7 0
BBX 7 10 0 0
BITMAP
18
30
00
f8
6c
6c
78
6c
6c
f6
ENDCHAR
STARTCHAR Aacute
ENCODING 193
SWIDTH 644 0
DWIDTH 7 0
BBX 7 9 0 0
BITMAP
18
30
00
10
38
28
7c
4c
ee
ENDCHAR
STARTCHAR Acircumflex
ENCODING 194
SWIDTH 644 0
DWIDTH 7 0
BBX 7 9 0 0
BITMAP
30
58
00
10
38
28
7c
4c
ee
ENDCHAR
STARTCHAR Abreve
ENCODING 195
SWIDTH 644 0
DWIDTH 7 0
BBX 7 10 0 0
BITMAP
24
18
00
10
38
38
28
7c
4c
ee
ENDCHAR
STARTCHAR Adiaeresis
ENCODING 196
SWIDTH 644 0
DWIDTH 7 0
BBX 7 9 0 0
BITMAP
28
28
00
10
38
28
7c
4c
ee
ENDCHAR
STARTCHAR Lacute
ENCODING 197
SWIDTH 585 0
DWIDTH 6 0
BBX 6 10 0 0
BITMAP
30
60
00
f0
60
60
60
60
64
fc
ENDCHAR
STARTCHAR Cacute
ENCODING 198
SWIDTH 689 0
DWIDTH 7 0
BBX 6 10 0 0
BITMAP
18
30
00
7c
c4
c0
c0
c0
c4
7c
ENDCHAR
STARTCHAR Ccedilla
ENCODING 199
SWIDTH 689 0
DWIDTH 7 0
BBX 6 9 0 -2
BITMAP
7c
c4
c0
c0
c0
c4
7c
10
30
ENDCHAR
STARTCHAR Ccaron
ENCODING 200
SWIDTH 689 0
DWIDTH 7 0
BBX 6 10 0 0
BITMAP
68
30
00
7c
c4
c0
c0
c0
c4
7c
ENDCHAR
STARTCHAR Eacute
ENCODING 201
SWIDTH 629 0
DWIDTH 7 0
BBX 6 9 0 0
BITMAP
18
30
00
fc
64
78
60
64
fc
ENDCHAR
STARTCHAR Eogonek
ENCODING 202
SWIDTH 629 0
DWIDTH 7 0
BBX 6 9 0 -2
BITMAP
fc
64
60
78
60
64
fc
20
30
ENDCHAR
STARTCHAR Ediaeresis
ENCODING 203
SWIDTH 629 0
DWIDTH 7 0
BBX 6 9 0 0
BITMAP
50
50
00
fc
64
78
60
64
fc
ENDCHAR
STARTCHAR Ecaron
ENCODING 204
SWIDTH 629 0
DWIDTH 7 0
BBX 6 10 0 0
BITMAP
68
30
00
fc
64
60
78
60
64
fc
ENDCHAR
STARTCHAR Iacute
ENCODING 205
SWIDTH 384 0
DWIDTH 4 0
BBX 4 9 0 0
BITMAP
60
c0
00
f0
60
60
60
60
f0
ENDCHAR
STARTCHAR Icircumflex
ENCODING 206
SWIDTH 384 0
DWIDTH 4 0
BBX 4 9 0 0
BITMAP
60
b0
00
f0
60
60
60
60
f0
ENDCHAR
STARTCHAR Dcaron
ENCODING 207
SWIDTH 777 0
DWIDTH 8 0
BBX 7 10 0 0
BITMAP
34
18
00
fc
66
66
66
66
66
fc
ENDCHAR
STARTCHAR Dstroke
ENCODING 208
SWIDTH 783 0
DWIDTH 8 0
BBX 7 7 0 0
BITMAP
fc
66
66
f6
66
66
fc
ENDCHAR
STARTCHAR Nacute
ENCODING 209
SWIDTH 739 0
DWIDTH 8 0
BBX 7 10 0 0
BITMAP
0c
18
00
ee
74
74
5c
5c
4c
ec
ENDCHAR
STARTCHAR Ncaron
ENCODING 210
SWIDTH 739 0
DWIDTH 8 0
BBX 7 10 0 0
BITMAP
34
18
00
ee
74
74
5c
5c
4c
ec
ENDCHAR
STARTCHAR Oacute
ENCODING 211
SWIDTH 768 0
DWIDTH 8 0
BBX 7 9 0 0
BITMAP
0c
18
00
7c
c6
c6
c6
c6
7c
ENDCHAR
STARTCHAR Ocircumflex
ENCODING 212
SWIDTH 768 0
DWIDTH 8 0
BBX 7 9 0 0
BITMAP
30
58
00
7c
c6
c6
c6
c6
7c
ENDCHAR
STARTCHAR Odoubleacute
ENCODING 213
SWIDTH 768 0
DWIDTH 8 0
BBX 7 10 0 0
BITMAP
14
28
00
7c
c6
c6
c6
c6
c6
7c
ENDCHAR
STARTCHAR Odiaeresis
ENCODING 214
SWIDTH 768 0
DWIDTH 8 0
BBX 7 9 0 0
BITMAP
28
28
00
7c
c6
c6
c6
c6
7c
ENDCHAR
STARTCHAR multiply
ENCODING 215
SWIDTH 600 0
DWIDTH 6 0
BBX 5 5 0 0
BITMAP
88
50
20
50
88
ENDCHAR
STARTCHAR Rcaron
ENCODING 216
SWIDTH 684 0
DWIDTH 7 0
BBX 7 10 0 0
BITMAP
68
30
00
f8
6c
6c
78
6c
6c
f6
ENDCHAR
STARTCHAR Uring
ENCODING 217
SWIDTH 786 0
DWIDTH 8 0
BBX 8 11 0 0
BITMAP
18
24
18
00
ef
66
66
66
66
66
3c
ENDCHAR
STARTCHAR Uacute
ENCODING 218
SWIDTH 786 0
DWIDTH 8 0
BBX 8 9 0 0
BITMAP
18
30
00
ef
66
66
66
66
3c
ENDCHAR
STARTCHAR Udoubleacute
ENCODING 219
SWIDTH 786 0
DWIDTH 8 0
BBX 8 10 0 0
BITMAP
14
28
00
ef
66
66
66
66
66
3c
ENDCHAR
STARTCHAR Udiaeresis
ENCODING 220
SWIDTH 786 0
DWIDTH 8 0
BBX 8 9 0 0
BITMAP
28
28
00
ef
66
66
66
66
3c
ENDCHAR
STARTCHAR Yacute
ENCODING 221
SWIDTH 617 0
DWIDTH 7 0
BBX 8 9 -1 0
BITMAP
0c
18
00
f7
62
34
18
18
3c
ENDCHAR
STARTCHAR Tcedilla
ENCODING 222
SWIDTH 624 0
DWIDTH 7 0
BBX 6 9 0 -2
BITMAP
fc
b4
30
30
30
30
78
10
30
ENDCHAR
STARTCHAR ssharp
ENCODING 223
SWIDTH 662 0
DWIDTH 7 0
BBX 7 8 0 0
BITMAP
38
6c
6c
68
6c
66
66
ec
ENDCHAR
STARTCHAR racute
ENCODING 224
SWIDTH 440 0
DWIDTH 5 0
BBX 5 8 0 0
BITMAP
18
30
00
e8
78
60
60
f0
ENDCHAR
STARTCHAR aacute
ENCODING 225
SWIDTH 544 0
DWIDTH 6 0
BBX 6 8 0 0
BITMAP
30
60
00
70
d8
78
d8
7c
ENDCHAR
STARTCHAR acircumflex
ENCODING 226
SWIDTH 544 0
DWIDTH 6 0
BBX 6 8 0 0
BITMAP
30
58
00
70
d8
78
d8
7c
ENDCHAR
STARTCHAR abreve
ENCODING 227
SWIDTH 544 0
DWIDTH 6 0
BBX 6 8 0 0
BITMAP
48
30
00
70
d8
78
d8
7c
ENDCHAR
STARTCHAR adiaeresis
ENCODING 228
SWIDTH 544 0
DWIDTH 6 0
BBX 6 8 0 0
BITMAP
50
50
00
70
d8
78
d8
7c
ENDCHAR
STARTCHAR lacute
ENCODING 229
SWIDTH 309 0
DWIDTH 4 0
BBX 4 11 0 0
BITMAP
30
60
00
e0
60
60
60
60
60
60
f0
ENDCHAR
STARTCHAR cacute
ENCODING 230
SWIDTH 494 0
DWIDTH 5 0
BBX 5 8 0 0
BITMAP
18
30
00
70
d8
c0
e0
78
ENDCHAR
STARTCHAR ccedilla
ENCODING 231
SWIDTH 494 0
DWIDTH 5 0
BBX 5 7 0 -2
BITMAP
70
d8
c0
e0
78
20
60
ENDCHAR
STARTCHAR ccaron
ENCODING 232
SWIDTH 494 0
DWIDTH 5 0
BBX 5 8 0 0
BITMAP
68
30
00
70
d8
c0
e0
78
ENDCHAR
STARTCHAR eacute
ENCODING 233
SWIDTH 519 0
DWIDTH 5 0
BBX 5 8 0 0
BITMAP
30
60
00
70
d8
f8
c0
78
ENDCHAR
STARTCHAR eogonek
ENCODING 234
SWIDTH 519 0
DWIDTH 5 0
BBX 5 7 0 -2
BITMAP
70
d8
f8
c0
78
20
30
ENDCHAR
STARTCHAR ediaeresis
ENCODING 235
SWIDTH 519 0
DWIDTH 5 0
BBX 5 8 0 0
BITMAP
50
50
00
70
d8
f8
c0
78
ENDCHAR
STARTCHAR ecaron
ENCODING 236
SWIDTH 519 0
DWIDTH 5 0
BBX 5 8 0 0
BITMAP
68
30
00
70
d8
f8
c0
78
ENDCHAR
STARTCHAR iacute
ENCODING 237
SWIDTH 316 0
DWIDTH 4 0
BBX 4 8 0 0
BITMAP
30
60
00
e0
60
60
60
f0
ENDCHAR
STARTCHAR icircumflex
ENCODING 238
SWIDTH 316 0
DWIDTH 4 0
BBX 4 8 0 0
BITMAP
60
b0
00
e0
60
60
60
f0
ENDCHAR
STARTCHAR dcaron
ENCODING 239
SWIDTH 768 0
DWIDTH 8 0
BBX 8 9 0 0
BITMAP
03
3b
19
1a
78
d8
d8
d8
7c
ENDCHAR
STARTCHAR dstroke
ENCODING 240
SWIDTH 672 0
DWIDTH 7 0
BBX 7 8 0 0
BITMAP
18
7e
18
78
d8
d8
d8
7c
ENDCHAR
STARTCHAR nacute
ENCODING 241
SWIDTH 638 0
DWIDTH 7 0
BBX 7 8 0 0
BITMAP
18
30
00
f8
6c
6c
6c
ee
ENDCHAR
STARTCHAR ncaron
ENCODING 242
SWIDTH 638 0
DWIDTH 7 0
BBX 7 8 0 0
BITMAP
68
30
00
f8
6c
6c
6c
ee
ENDCHAR
STARTCHAR oacute
ENCODING 243
SWIDTH 585 0
DWIDTH 6 0
BBX 6 8 0 0
BITMAP
18
30
00
78
dc
cc
ec
78
ENDCHAR
STARTCHAR ocircumflex
ENCODING 244
SWIDTH 585 0
DWIDTH 6 0
BBX 6 8 0 0
BITMAP
30
58
00
78
dc
cc
ec
78
ENDCHAR
STARTCHAR odoubleacute
ENCODING 245
SWIDTH 585 0
DWIDTH 6 0
BBX 6 8 0 0
BITMAP
28
50
00
78
dc
cc
ec
78
ENDCHAR
STARTCHAR odiaeresis
ENCODING 246
SWIDTH 585 0
DWIDTH 6 0
BBX 6 8 0 0
BITMAP
50
50
00
78
dc
cc
ec
78
ENDCHAR
STARTCHAR division
ENCODING 247
SWIDTH 600 0
DWIDTH 6 0
BBX 5 5 0 0
BITMAP
20
00
f8
00
20
ENDCHAR
STARTCHAR rcaron
ENCODING 248
SWIDTH 440 0
DWIDTH 5 0
BBX 5 8 0 0
BITMAP
68
30
00
e8
78
60
60
f0
ENDCHAR
STARTCHAR uring
ENCODING 249
SWIDTH 629 0
DWIDTH 7 0
BBX 7 9 0 0
BITMAP
30
48
30
00
ec
6c
6c
6c
3e
ENDCHAR
STARTCHAR uacute
ENCODING 250
SWIDTH 629 0
DWIDTH 7 0
BBX 7 8 0 0
BITMAP
0c
18
00
ec
6c
6c
6c
3e
ENDCHAR
STARTCHAR udoubleacute
ENCODING 251
SWIDTH 629 0
DWIDTH 7 0
BBX 7 8 0 0
BITMAP
28
50
00
ec
6c
6c
6c
3e
ENDCHAR
STARTCHAR udiaeresis
ENCODING 252
SWIDTH 629 0
DWIDTH 7 0
BBX 7 8 0 0
BITMAP
28
28
00
ec
6c
6c
6c
3e
ENDCHAR
STARTCHAR yacute
ENCODING 253
SWIDTH 524 0
DWIDTH 5 0
BBX 5 10 0 -2
BITMAP
60
30
00
d8
d8
70
70
20
e0
c0
ENDCHAR
STARTCHAR tcedilla
ENCODING 254
SWIDTH 370 0
DWIDTH 4 0
BBX 4 9 0 -2
BITMAP
20
60
f0
60
60
60
30
20
60
ENDCHAR
STARTCHAR abovedot
ENCODING 255
SWIDTH 430 0
DWIDTH 4 0
BBX 1 2 1 6
BITMAP
80
80
ENDCHAR
ENDFONT
